<svg xmlns="http://www.w3.org/2000/svg" width="240" height="240" viewBox="0 0 64 64"><g fill="none" fill-rule="evenodd"><circle cx="32" cy="44" r="12" fill="#fff"/><circle cx="32" cy="24" r="8" fill="#fff"/><circle cx="29" cy="22" r="1" fill="#333"/><circle cx="35" cy="22" r="1" fill="#333"/><path d="M32 25c1 0 2 .5 2 1s-1 1-2 1-2-.5-2-1 1-1 2-1z" fill="#F28C28"/><path d="M22 14c0-2 3-4 6-4s6 2 6 4v2h-12v-2z" fill="#2FBDFF"/><path d="M20 52c0-2 8-4 12-4s12 2 12 4c0 0-6 6-12 6s-12-6-12-6z" fill="#E6F7FF" opacity="0.7"/></g></svg>